<svg xmlns="http://www.w3.org/2000/svg" viewBox="0 0 420 220">
  <defs><linearGradient id="g" x1="0" x2="1" y1="0" y2="1"><stop stop-color="#eefaf7"/><stop offset="1" stop-color="#ffffff"/></linearGradient></defs>
  <rect width="420" height="220" rx="18" fill="url(#g)"/>
  <path d="M0 170c76-42 122-24 192-62 75-40 126-36 228-2" fill="none" stroke="#d9efea" stroke-width="38" opacity=".9"/>
  <path d="M38 184c78-44 120-24 172-66 52-43 80-42 172-22" fill="none" stroke="#33a4a5" stroke-width="4" opacity=".45"/>
  <g transform="translate(172 78)"><path d="M0 48h112v70H0z" fill="#47b5b3" opacity=".68"/><path d="M-12 50 56 8l68 42" fill="#2b9694" opacity=".8"/><path d="M44 82h24v36H44z" fill="#e9ffff"/><circle cx="34" cy="76" r="6" fill="#e9ffff"/><circle cx="56" cy="72" r="7" fill="#e9ffff"/><circle cx="78" cy="76" r="6" fill="#e9ffff"/></g>
  <g fill="#9bd5d2" opacity=".45"><rect x="306" y="64" width="46" height="88" rx="3"/><rect x="360" y="92" width="30" height="60" rx="3"/></g>
</svg>
